<svg width="64" height="64" viewBox="0 0 64 64" fill="none" xmlns="http://www.w3.org/2000/svg">
<path d="M32 64c17.673 0 32-14.327 32-32 0-17.673-14.327-32-32-32C14.327 0 0 14.327 0 32c0 17.673 14.327 32 32 32z" fill="#191977"/>
<path d="m24 20.257-15.288-10.192c-.614.652-1.201 1.33-1.76 2.032L24 23.462V24H15.193L3.987 16.53c-.433.782-.83 1.586-1.198 2.406L10.385 24H1.008c-.225.874-.406 1.765-.557 2.667H26.667V.45C25.765.602 24.874.783 24 1.008v19.249z" fill="#fff"/>
<path d="M.45 37.333c.152.901.333 1.792.558 2.667h9.377L2.79 45.064c.368.82.765 1.624 1.198 2.406L15.193 40H24v.538L6.952 51.903c.558.702 1.145 1.38 1.76 2.032L24 43.743V62.992c.874.225 1.765.406 2.667.557V37.333H.45z" fill="#fff"/>
<path d="M63.549 26.667c-.151-.902-.332-1.793-.557-2.667H53.615l7.596-5.064c-.368-.82-.765-1.624-1.198-2.406L48.807 24H40v-.538l17.048-11.365c-.558-.702-1.145-1.38-1.76-2.032L40 20.257V1.008c-.874-.225-1.765-.406-2.667-.557v26.216h26.216z" fill="#fff"/>
<path d="M37.333 37.333V63.55c.902-.151 1.793-.332 2.667-.558V43.743L55.288 53.935c.614-.652 1.201-1.33 1.76-2.032L40 40.538V40h8.807l11.206 7.47c.433-.782.83-1.586 1.198-2.406L53.615 40h9.377c.225-.874.406-1.765.557-2.667H37.333z" fill="#fff"/>
<path d="M24 24v-.538L6.952 12.097C5.847 13.486 4.852 14.966 3.987 16.53L15.193 24H24z" fill="#F0263C"/>
<path d="M60.013 16.53c-.865-1.563-1.86-3.044-2.966-4.433L40 23.462V24h8.807l11.206-7.47z" fill="#F0263C"/>
<path d="M3.987 47.47c.865 1.564 1.86 3.044 2.965 4.433L24 40.538V40H15.193L3.987 47.47z" fill="#F0263C"/>
<path d="M40 40v.538l17.048 11.365c1.105-1.389 2.1-2.87 2.965-4.433L48.807 40H40z" fill="#F0263C"/>
<path d="M63.549 26.667H37.333V.45C35.598.16 33.818 0 32 0s-3.598.16-5.333.45V26.667H.45C.16 28.402 0 30.182 0 32s.16 3.598.45 5.333h26.217V63.55c1.735.29 3.515.45 5.333.45s3.598-.16 5.333-.45V37.333h26.216c.29-1.735.451-3.515.451-5.333s-.16-3.598-.451-5.333z" fill="#F0263C"/>
</svg>
