<svg width="64" height="64" viewBox="0 0 64 64" fill="none" xmlns="http://www.w3.org/2000/svg">
<path d="M32 64c17.673 0 32-14.327 32-32 0-17.673-14.327-32-32-32C14.327 0 0 14.327 0 32c0 17.673 14.327 32 32 32z" fill="#F0263C"/>
<path d="M31.421 31.459c-.542-1.133-.826-2.372-.826-3.626 0-.325.024-.665.076-1.07l.039-.308.393.022c.054.004.108.008.164.008 2.426 0 4.4-1.974 4.4-4.4 0-1.499-.755-2.88-2.02-3.696l-.252-.162.136-.268c.29-.576.64-1.11.9-1.597-.21.018-.409.027-.6.027-2.37 0-4.583 1.065-6.071 2.921-.11.132-.209.264-.3.402-.923 1.32-.9-2.859-.9-4.457 0 3.353 2.115 6.272 5.23 7.345zM27.603 32.048c-.309-.1-.625-.228-.994-.403l-.28-.132.142-.365c.02-.05.04-.101.058-.154.363-1.118.269-2.31-.264-3.357-.534-1.048-1.443-1.824-2.561-2.187-1.427-.464-2.973-.172-4.14 1.078l-.233.19-.213-.21c-.457-.456-.858-.953-1.196-1.485-.083.194-.153.38-.212.563-.732 2.254-.404 4.688.902 6.677.091.146.186.28.289.41 1.03 1.286 2.344 2.224 3.864 2.718 3.19 1.037 6.619-.072 8.601-2.703-1.246.166-2.512.052-3.706-.345zM30.687 36.197c-.19.262-.41.522-.689.82l-.213.226-.301-.248c-.043-.036-.085-.072-.13-.105-1.963-1.426-4.72-1.02-6.147.943-.88.9-1.082 2.462-.538 3.865l.108.28-.267.137c-.574.295-1.171.523-1.782.68.158.138.314.262.469.375 1.917 1.393 4.333 1.832 6.629 1.205.167-.041.325-.09.48-.147 1.523-1.025 2.82-2.015 3.76-3.308 1.972-2.713 1.976-6.317-.084-9.016-.228 1.236-.727 2.405-1.47 3.42zM32.787 32.097c1.104.6 2.062 1.435 2.8 2.45.19.262.37.552.567.91l.149.272-.329.21c-.047.03-.094.06-.138.092-.95.69-1.576 1.71-1.76 2.871-.184 1.16.095 2.323.786 3.274.881 1.213 2.308 1.89 3.807 1.8l.3-.016.048.296c.103.636.135 1.275.096 1.905.18-.108.347-.218.501-.33 1.918-1.393 3.082-3.555 3.194-5.932.012-.172.014-.337.008-.502-.029-1.61-.541-3.14-1.48-4.433-1.971-2.713-5.397-3.83-8.549-2.868zM32.335 31.282c.91-.866 2.001-1.52 3.193-1.907.308-.1.639-.182 1.04-.259l.305-.058.1.382c.013.052.026.104.043.156.363 1.117 1.14 2.027 2.187 2.56 1.047.535 2.24.629 3.357.265 1.425-.463 2.506-1.608 2.891-3.063l.077-.29.296.046c.638.1.9-1.256.9-1.48.047-.205-.006-.397-.065-.58-1.02-2.254-2.716-4.03-4.941-4.872-.16-.064-.315-.118-.474-.162-1.542-.47-3.156-.456-4.676.038-3.19.9-5.312 3.823-5.37 7.117z" fill="#fff"/>
<path d="m31.333 19.667-1.667 1.666L31.333 23l1.666-1.667-1.666-1.666z" fill="#F0263C"/>
<path d="m20.064 28.823 1.07 2.1 2.1-1.07-1.07-2.1-2.1 1.07z" fill="#F0263C"/>
<path d="m25.29 42.37 2.328-.369-.369-2.328-2.328.369.369 2.328z" fill="#F0263C"/>
<path d="m39.789 41.586.368-2.328-2.328-.368-.368 2.328 2.328.368z" fill="#F0263C"/>
<path d="m43.524 27.555-2.1-1.07-1.07 2.1 2.1 1.07 1.07-2.1z" fill="#F0263C"/>
</svg>
