<svg width="64" height="64" viewBox="0 0 64 64" fill="none" xmlns="http://www.w3.org/2000/svg">
<path d="M32 64c17.673 0 32-14.327 32-32 0-17.673-14.327-32-32-32C14.327 0 0 14.327 0 32c0 17.673 14.327 32 32 32z" fill="#fff"/>
<path d="M32 25.333c3.682 0 6.667 2.985 6.667 6.667s-2.985 6.667-6.667 6.667-6.667-2.985-6.667-6.667 2.985-6.667 6.667-6.667z" fill="#fff"/>
<path d="M32 25.333c3.682 0 6.667 2.985 6.667 6.667s-2.985 6.667-6.667 6.667-6.667-2.985-6.667-6.667 2.985-6.667 6.667-6.667zM32 24C27.589 24 24 27.589 24 32s3.589 8 8 8 8-3.589 8-8-3.589-8-8-8z" fill="#191977"/>
<path d="M1.828 21.333h60.344C57.778 8.906 45.932 0 32 0 18.068 0 6.222 8.906 1.828 21.333z" fill="#FF7700"/>
<path d="M62.172 42.667H1.828C6.222 55.094 18.068 64 32 64c13.932 0 25.778-8.906 30.172-21.333z" fill="#1E5B00"/>
<path d="M32 36.009c2.209 0 4-1.791 4-4.001s-1.791-4-4-4-4 1.79-4 4 1.791 4.001 4 4.001z" fill="#191977"/>
</svg>
