<svg width="64" height="64" viewBox="0 0 64 64" fill="none" xmlns="http://www.w3.org/2000/svg">
<path d="M21.333 62.172V1.828C8.906 6.222 0 18.068 0 32c0 13.932 8.906 25.778 21.333 30.172z" fill="#1E5B00"/>
<path d="M42.667 1.828C39.33 0.648 35.741 0 32 0c-3.741 0-7.33.648-10.667 1.828v60.344C24.67 63.352 28.259 64 32 64s7.33-.648 10.667-1.828V1.828z" fill="#fff"/>
<path d="M42.667 1.828v60.344C55.094 57.778 64 45.932 64 32 64 18.068 55.094 6.222 42.667 1.828z" fill="#F0263C"/>
<path d="M29.333 28v1.333l1.333 1.334L29.333 33.333h4v1.333H36l-1.333-2.666H36l1.351 2.644c.826-1.11 1.316-2.487 1.316-3.977 0-3.682-2.985-6.667-6.667-6.667v2.667l-1.391-1.334H29.333L28 26.667h1.333V28z" fill="#CC9500"/>
<path d="m28 36 1.333 2.667h1.334V37.333L28 36z" fill="#4DAFE3"/>
<path d="M33.333 38.667h1.333L36 36l-2.667 1.333v1.334z" fill="#4DAFE3"/>
<path d="M32 34.667H25.333L26.667 36H28h8h1.333L38.667 34.667H36h-2.667H32z" fill="#1E5B00"/>
<path d="M33.333 37.333h-2.666v1.333h2.666v-1.333z" fill="#FFD400"/>
<path d="M33.333 33.333H32v1.333h1.333v-1.333z" fill="#FFD400"/>
<path d="M28 33.333h1.333V32L28 33.333z" fill="#FFD400"/>
<path d="M26.667 33.333H28l1.333-1.333-.24-.944L28 30.667V29.333h1.333V28L28 26.667 26.667 25.333v1.334L28 28l-1.333 1.333v1.334L28 32h-1.333H25.333V29.333H24v1.334l1.333 2.666h1.334z" fill="#1E5B00"/>
<path d="M39.88 33.333c-.638 3.777-3.924 6.667-7.88 6.667-3.956 0-7.242-2.89-7.88-6.667H22.773c.649 4.521 4.527 8 9.227 8s8.578-3.479 9.227-8h-1.347z" fill="#1E5B00"/>
</svg>
