<svg width="64" height="64" viewBox="0 0 64 64" fill="none" xmlns="http://www.w3.org/2000/svg">
<path d="M32 64c17.673 0 32-14.327 32-32 0-17.673-14.327-32-32-32C14.327 0 0 14.327 0 32c0 17.673 14.327 32 32 32z" fill="#191977"/>
<path d="M32 8V6.667h-5.193L32 3.205V1.602L24.404 6.667H20V6.398l9.428-6.286c-1.003.08-1.992.205-2.967.376L20 4.795V2.335c-.45.182-.894.375-1.333.476V8H32z" fill="#fff"/>
<path d="M13.333 6.016c-.863.62-1.693.962-2.488 1.984h2.488V6.016z" fill="#fff"/>
<path d="M18.667 21.333H20v-4.795l7.193 4.795h2.403L20 14.936v-.269h4.404L32 19.73v-1.602l-5.193-3.461H32v-1.334H18.667v8z" fill="#fff"/>
<path d="M6.016 13.333c-.314.436-.617.88-.91 1.333-.021.033-.042.066-.063.1-.539.841-1.04 1.709-1.5 2.602l4.052-2.699H12v.269L2.404 21.333h2.403L12 16.538v4.795h1.333V13.333H6.016z" fill="#fff"/>
<path d="M20 6.667h4.404L32 1.602V0c-.867 0-1.723.044-2.572.112L20 6.398v.269z" fill="#F0263C"/>
<path d="M20 14.667v.269l9.596 6.397H32v-1.602L24.404 14.667H20z" fill="#F0263C"/>
<path d="M12 14.936v-.269H7.596l-4.052 2.7c-.657 1.274-1.232 2.597-1.716 3.965h.575L12 14.936z" fill="#F0263C"/>
<path d="M13.333 21.333h5.334V13.333H32V8h-13.333V2.911c-1.884.865-3.668 1.907-5.333 3.105V8h-2.508c-1.802 1.59-3.422 3.379-4.829 5.333h7.317l.001 8z" fill="#F0263C"/>
<path d="m51.771 49.953-3.771-3.772-3.772 3.772 3.772 3.771 3.771-3.771z" fill="#F0263C"/>
<path d="M48 46.181 51.771 49.953 48 53.724l-3.771-3.771L48 46.181zm0-.943-4.714 4.714L48 54.667l4.714-4.714L48 45.238z" fill="#fff"/>
<path d="m41.101 23.333-2.434-2.434-2.435 2.434 2.435 2.434 2.434-2.434z" fill="#F0263C"/>
<path d="m38.667 20.899 2.434 2.434-2.434 2.435-2.434-2.435 2.434-2.434zM35.333 23.333l3.334 3.334 3.333-3.334-3.333-3.333-3.334 3.333z" fill="#fff"/>
<path d="m50.434 12.667-2.434-2.434-2.434 2.434 2.434 2.434 2.434-2.434z" fill="#F0263C"/>
<path d="M48 10.233 50.434 12.667 48 15.101 45.566 12.667 48 10.233zm0-.9L44.667 12.667 48 16l3.333-3.333L48 9.333z" fill="#fff"/>
<path d="m58.434 22-2.434-2.434-2.434 2.434 2.434 2.434 2.434-2.434z" fill="#F0263C"/>
<path d="M56 19.566 58.434 22 56 24.434 53.566 22 56 19.566zM56 18.667 52.667 22 56 25.333 59.333 22 56 18.667z" fill="#fff"/>
</svg>
