<svg width="64" height="64" viewBox="0 0 64 64" fill="none" xmlns="http://www.w3.org/2000/svg">
<path d="M25.09.757 25.667 1.333 23.667 3.333l-1.715-1.714c-3.108 1.028-6.004 2.518-8.61 4.391l.658.657-2 2-1.107-.893c-.986.852-1.926 1.756-2.801 2.72l1.507 1.507-2 2-1.319-1.319c-.746.983-1.434 2.013-2.065 3.081l1.572 1.571-2 2-1.043-.957C1.094 22.51 0 27.127 0 32h32V0c-2.373 0-4.684.266-6.91.757z" fill="#191977"/>
<path d="M49.686 5.333C44.619 1.966 38.54 0 32 0v5.333h17.686z" fill="#fff"/>
<path d="M32 10.667h23.845c-1.815-2.028-3.885-3.822-6.159-5.334H32v5.334z" fill="#F0263C"/>
<path d="M32 16h27.708c-1.106-1.912-2.4-3.699-3.863-5.333H32V16z" fill="#fff"/>
<path d="M32 21.333h30.172c-.659-1.864-1.487-3.646-2.464-5.333H32v5.333z" fill="#F0263C"/>
<path d="M32 26.667h31.549c-.308-1.835-.77-3.618-1.377-5.333H32v5.333z" fill="#fff"/>
<path d="M32 32h32c0-1.818-.159-3.598-.451-5.333H32V32z" fill="#F0263C"/>
<path d="M32 32H0c0 1.818.16 3.598.451 5.333h63.098C63.84 35.598 64 33.818 64 32H32z" fill="#fff"/>
<path d="M1.828 42.667h60.344c.606-1.715 1.069-3.498 1.377-5.333H.45C.759 39.169 1.222 40.951 1.828 42.667z" fill="#F0263C"/>
<path d="M4.292 48h55.416c.976-1.687 1.804-3.47 2.464-5.333H1.828c.659 1.863 1.487 3.646 2.464 5.333z" fill="#fff"/>
<path d="M8.155 53.333h47.69c1.463-1.635 2.757-3.422 3.863-5.333H4.292c1.106 1.911 2.4 3.698 3.863 5.333z" fill="#F0263C"/>
<path d="M14.314 58.667h35.372c2.274-1.511 4.344-3.305 6.159-5.333H8.155c1.815 2.028 3.885 3.822 6.159 5.333z" fill="#fff"/>
<path d="M32 64c6.54 0 12.619-1.966 17.686-5.333H14.314C19.381 62.034 25.46 64 32 64z" fill="#F0263C"/>
<path d="m7.812 20.667-2 2 2 2 2-2-2-2zM15.667 20.667l-2 2 2 2 2-2-2-2zM23.667 20.667l-2 2 2 2 2-2-2-2zM15.667 10l-2 2 2 2 2-2-2-2zM23.667 10l-2 2 2 2 2-2-2-2zM4 26l-2 2 2 2 2-2-2-2zM12 26l-2 2 2 2 2-2-2-2zM19.855 26l-2 2 2 2 2-2-2-2zM27.855 26l-2 2 2 2 2-2-2-2zM12 15.333l-2 2 2 2 2-2-2-2zM19.855 15.333l-2 2 2 2 2-2-2-2zM27.855 15.333l-2 2 2 2 2-2-2-2zM19.855 4.667l-2 2 2 2 2-2-2-2zM27.855 4.667l-2 2 2 2 2-2-2-2z" fill="#fff"/>
<path d="m9.812 12-1.507-1.507c-.636.7-1.239 1.432-1.812 2.188l1.319 1.319 2-2z" fill="#fff"/>
<path d="m6 17.333-1.571-1.571c-.5.848-.964 1.719-1.386 2.614l.957 1.043 2-2z" fill="#fff"/>
<path d="m14 6.667-0.657-.658c-.772.555-1.518 1.144-2.236 1.764l.893 1.107 2-2z" fill="#fff"/>
<path d="m25.667 1.333-.577-.577c-1.067.235-2.114.523-3.138.862l1.715 1.715 2-2z" fill="#fff"/>
</svg>
