<svg width="64" height="64" viewBox="0 0 400 400" fill="none" xmlns="http://www.w3.org/2000/svg"><path d="M359.68 260.31l-16.05-54.86c-.41-1.41-1.21-2.67-2.3-3.65-.14-.13-.3-.27-.48-.4L159.22 61.52c-2.22-1.71-5.22-2.13-7.81-1.08l-94.3 38c-1.71.7-3.13 1.97-4 3.57-.29.52-.52 1.1-.68 1.68l-12.14 44.13c-.76 2.78.05 5.78 2.13 7.79l187.54 182.29c.79.78 1.73 1.35 2.73 1.71.9.35 1.86.52 2.81.52 1.4 0 2.81-.37 4.06-1.13l116.59-69.65c3.1-1.86 4.56-5.59 3.54-9.05z" fill="#b7b7b7"/><path d="M229.58 259.69l3.22 76.43c-.22-.14-.43-.32-.63-.51L44.62 153.33c-1.24-1.2-1.73-3-1.27-4.67l12.14-44.13c.05-.17.11-.35.18-.52l171.22 154.1c.8.71 1.71 1.25 2.7 1.58z" fill="#9f9f9f"/><path d="M338.57 203.64l-104.22 52.81c-.68.35-1.41.51-2.16.51-1.14 0-2.29-.41-3.17-1.21L57.79 101.64c.16-.11.33-.19.51-.25l94.3-38c1.56-.64 3.35-.4 4.68.63l181.29 139.62z" fill="#ffde3b"/><path d="M338.57 203.64l-104.22 52.81c-.68.35-1.41.51-2.16.51-1.14 0-2.29-.41-3.17-1.21L57.79 101.64c.16-.11.33-.19.51-.25l94.3-38c1.56-.64 3.35-.4 4.68.63l181.29 139.62z" fill="#c8c8c8"/><path d="M119.83 157.48l109.18 98.28c.89.79 2.03 1.2 3.18 1.2.74 0 1.47-.16 2.16-.51l104.22-52.81-83.22-64.09c-7.43-.46-14.95-.71-22.54-.71-40.4 0-78.69 6.69-112.98 18.64z" fill="#d6d6d6"/><path d="M226.89 258.1l-127.93-115.13c.67 26.42 10.94 57.9 29.34 91.68l103.87 100.95c.2.19.41.37.63.51l-3.22-76.43c-.98-.33-1.9-.87-2.7-1.58z" fill="#adadad"/><path d="M234.35 240.58c-.69.35-1.42.51-2.16.51-1.14 0-2.28-.41-3.17-1.21L58.3 101.39c-.17.06-.35.14-.51.25l171.22 154.11c.89.8 2.03 1.21 3.18 1.21.74 0 1.47-.16 2.16-.51l104.22-52.81-104.22 36.94z" fill="#fff" opacity=".2"/><path d="M152.6 79.26c1.55-.63 3.35-.4 4.68.64l181.29 123.74L157.28 64.02c-1.33-1.03-3.13-1.27-4.68-.63l-94.3 38c-.18.07-.35.14-.51.26l94.81-22.38z" fill="#fff" opacity=".2"/><path d="M359.68 260.31L343.63 205.45c-.2.68 8.11 53.27 8.11 53.27 1.02 3.46-.44 7.19-3.54 9.05 0 0-109.42 71.71-108.65 71.24l116.59-69.65c3.09-1.86 4.55-5.59 3.54-9.05z" fill="#9f9f9f"/><path d="M117.8 119.38l37.5 52.1 5.14-2.97-10.76-14.68 16.38-9.45 18.9 9.97 5.14-2.97-67.24-34.93-5.06 2.92zm10.98 5.33l30.11 15.89-13.29 7.67-17.14-23.38.32-.18zm71.37 12.13c.36-1.35.32-2.64-.1-3.87-.42-1.23-.82-2.25-1.19-3.04l.4-.23 7.98 6.63c3.27 2.72 4.88 5.18 4.82 7.37-.06 2.2-1.32 4-3.77 5.42-1.83 1.06-3.66 1.62-5.48 1.7-1.81.08-3.51-.08-5.08-.48-1.58-.4-2.93-.78-4.07-1.13l-.34 4.95c2 .77 4.13 1.34 6.41 1.72 2.28.38 4.6.41 6.96.09 2.36-.32 4.67-1.13 6.93-2.43 2.42-1.4 4.13-3.09 5.12-5.06.98-1.98 1.01-4.18.06-6.63s-3.1-5.07-6.48-7.87l-40.4-33.58-4.5 2.6 6.24 5.19-.48.27c-1.02-.37-2.38-.81-4.07-1.34-1.69-.52-3.54-.8-5.55-.83-2.01-.03-4.01.53-5.98 1.67-2.56 1.48-3.99 3.46-4.29 5.96-.31 2.49.49 5.3 2.39 8.41 1.9 3.12 4.86 6.35 8.88 9.69 4.09 3.4 8.13 5.97 12.12 7.7 3.99 1.73 7.71 2.65 11.15 2.78 3.45.12 6.39-.52 8.85-1.94 1.98-1.14 3.14-2.38 3.5-3.73zm-8.29-1.14c-1.95 1.13-4.17 1.58-6.67 1.35-2.5-.23-5.12-1.02-7.88-2.37-2.75-1.35-5.5-3.16-8.22-5.43-2.66-2.21-4.75-4.41-6.28-6.6-1.53-2.19-2.29-4.2-2.27-6.04.02-1.83 1.01-3.32 2.99-4.46 1.9-1.09 4.1-.1.5 6.62-1.23 2.52.27 5.19 1.12 8.02 2.54 2.82 1.42 5.65 3.3 8.48 5.66 2.9 2.4 5.05 4.67 6.46 6.78 1.4 2.12 2.02 4.01 1.83 5.68-.18 1.67-1.21 3.04-3.08 4.12zm12.25 52.08c.28.92.2 1.79-.24 2.6-.44.81-1.25 1.51-2.43 2.11-1.17.6-2.39.92-3.66.98-1.27.05-2.54-.17-3.81-.68-1.27-.52-2.5-1.32-3.7-2.43l2.97-1.51c.58.5 1.17.87 1.78 1.09.61.22 1.21.31 1.81.27s1.17-.19 1.69-.46c.52-.26.89-.57 1.1-.93.22-.36.28-.73.19-1.13-.09-.4-.33-.78-.72-1.16-.36-.35-.77-.59-1.21-.74s-.93-.2-1.47-.18c-.54.02-1.15.09-1.82.22l-2.02.38c-1.56.3-3.04.29-4.46-.03-1.41-.32-2.72-1.05-3.91-2.2-1-.94-1.61-1.89-1.87-2.83-.26-.95-.18-1.83.24-2.65s1.15-1.5 2.21-2.03c1.08-.55 2.22-.83 3.44-.84 1.22 0 2.42.22 3.6.69s2.26 1.18 3.24 2.1l-2.94 1.5c-.7-.59-1.43-.94-2.22-1.06-.78-.12-1.54 0-2.28.38-.5.25-.85.54-1.03.87-.19.32-.24.66-.14 1.02s.31.7.66 1.04c.28.28.59.5.92.64.34.15.69.24 1.06.28.37.04.75.05 1.14.01.39-.03.79-.09 1.18-.18l1.65-.32c.79-.17 1.58-.26 2.37-.28.79-.01 1.58.07 2.35.24.77.17 1.53.45 2.27.85.73.39 1.44.91 2.12 1.56.99.95 1.62 1.9 1.9 2.82zm-8.36-16.55l16.22 15.58-3.07 1.56-16.22-15.58 3.07-1.56zm25.19 6.86l2.83 2.71-9.28 4.72-16.22-15.58 3.07-1.56 13.39 12.86 6.21-3.16zm.25-19.8l11.22 18.12-3.95 2.01-21.23-13.03 3.41-1.73 15.82 10.05.14-.07-8.8-13.62 3.4-1.73zm24.93 7l2.82 2.71-9.8 4.98-16.22-15.57 9.78-4.97 2.82 2.71-6.7 3.41 3.86 3.71 6.2-3.15 2.83 2.72-6.2 3.15 3.87 3.72 6.74-3.42zm13.32-2.62l3.38-1.72-9.38-4.49c.02-.04.06-.08.08-.13.37-.79.38-1.67.03-2.62-.36-.96-1.08-1.95-2.15-2.98-1.07-1.03-2.21-1.82-3.41-2.38-1.21-.55-2.41-.84-3.62-.87s-2.37.24-3.46.8l-5.72 2.91 16.21 15.58 3.07-1.56-5.75-5.52 2.24-1.14 8.5 4.13zm-18.4-10.35l2.07-1.05c.59-.3 1.17-.46 1.76-.47s1.15.11 1.71.37c.56.25 1.11.64 1.65 1.16.53.51.88 1 1.05 1.43.17.44.15.85-.06 1.22-.21.37-.6.7-1.19 1l-2.08 1.05-4.91-4.71z" fill="#818181"/></svg>