<svg width="64" height="64" viewBox="0 0 64 64" fill="none" xmlns="http://www.w3.org/2000/svg">
<path d="M32 64c17.673 0 32-14.327 32-32 0-17.673-14.327-32-32-32C14.327 0 0 14.327 0 32c0 17.673 14.327 32 32 32z" fill="#619B27"/>
<path d="m4 32 28-18.667L60 32 32 50.667 4 32z" fill="#FFD400"/>
<path d="M32 44c6.627 0 12-5.373 12-12s-5.373-12-12-12-12 5.373-12 12 5.373 12 12 12z" fill="#191977"/>
<path d="M25.333 28c7.064 0 13.475 2.835 18.165 7.422.147-.493.254-1.002.337-1.52C38.963 29.414 32.464 26.667 25.333 26.667c-1.438 0-2.85.113-4.229.328-.217.472-.414.954-.57 1.456 1.556-.292 3.159-.451 4.799-.451z" fill="#fff"/>
</svg>
