<svg width="64" height="64" viewBox="0 0 64 64" fill="none" xmlns="http://www.w3.org/2000/svg">
<path d="M13.333 6.016C6.632 10.839 1.875 18.185.451 26.667h12.882V6.016z" fill="#007ACC"/>
<path d="M63.549 26.667C61.009 11.533 47.855 0 32 0c-2.762 0-5.443.35-8 1.008v25.658h39.549z" fill="#007ACC"/>
<path d="M.451 37.333c1.424 8.482 6.182 15.828 12.882 20.65V37.333H.451z" fill="#007ACC"/>
<path d="M24 62.992c2.557.658 5.238 1.008 8 1.008 15.855 0 29.009-11.534 31.549-26.667H24v25.659z" fill="#007ACC"/>
<path d="M63.881 29.333c-.074-.9-.184-1.789-.332-2.667H24V1.008c-.906.233-1.794.511-2.667.82-1.864.659-3.646 1.487-5.333 2.463-.919.532-1.809 1.107-2.667 1.725v23.65H.451c-.147.877-.257 1.767-.332 2.667-.073.88-.119 1.768-.119 2.667s.046 1.787.119 2.667c.074.9.184 1.789.332 2.667h20.882v20.65c.858.618 1.748 1.193 2.667 1.725 1.687.976 3.469 1.805 5.333 2.463.873.309 1.761.587 2.667.82v-25.66H63.55c.147-.877.257-1.767.331-2.667.073-.88.119-1.768.119-2.667s-.046-1.787-.119-2.667z" fill="#FFD400"/>
</svg>
