<svg width="64" height="64" viewBox="0 0 400 400" fill="none" xmlns="http://www.w3.org/2000/svg"><path d="M359.68 260.31l-16.05-54.86c-.41-1.41-1.21-2.67-2.3-3.65-.14-.13-.3-.27-.48-.4L159.22 61.52c-2.22-1.71-5.22-2.13-7.81-1.08l-94.3 38c-1.71.7-3.13 1.97-4 3.57-.29.52-.52 1.1-.68 1.68l-12.14 44.13c-.76 2.78.05 5.78 2.13 7.79l187.54 182.29c.79.78 1.73 1.35 2.73 1.71.9.35 1.86.52 2.81.52 1.4 0 2.81-.37 4.06-1.13l116.59-69.65c3.1-1.86 4.56-5.59 3.54-9.05z" fill="#f4b613"/><path d="M229.58 259.69l3.22 76.43c-.22-.14-.43-.32-.63-.51L44.62 153.33c-1.24-1.2-1.73-3-1.27-4.67l12.14-44.13c.05-.17.11-.35.18-.52l171.22 154.1c.8.71 1.71 1.25 2.7 1.58z" fill="#d89f00"/><path d="M338.57 203.64l-104.22 52.81c-.68.35-1.41.51-2.16.51-1.14 0-2.29-.41-3.17-1.21L57.79 101.64c.16-.11.33-.19.51-.25l94.3-38c1.56-.64 3.35-.4 4.68.63l181.29 139.62z" fill="#ffde3b"/><path d="M338.57 203.64l-104.22 52.81c-.68.35-1.41.51-2.16.51-1.14 0-2.29-.41-3.17-1.21L57.79 101.64c.16-.11.33-.19.51-.25l94.3-38c1.56-.64 3.35-.4 4.68.63l181.29 139.62z" fill="#facd29"/><path d="M119.83 157.48l109.18 98.28c.89.79 2.03 1.2 3.18 1.2.74 0 1.47-.16 2.16-.51l104.22-52.81-83.22-64.09c-7.43-.46-14.95-.71-22.54-.71-40.4 0-78.69 6.69-112.98 18.64z" fill="#ffde3b"/><path d="M226.89 258.1l-127.93-115.13c.67 26.42 10.94 57.9 29.34 91.68l103.87 100.95c.2.19.41.37.63.51l-3.22-76.43c-.98-.33-1.9-.87-2.7-1.58z" fill="#fff" opacity=".15"/><path d="M234.35 240.58c-.69.35-1.42.51-2.16.51-1.14 0-2.28-.41-3.17-1.21L58.3 101.39c-.17.06-.35.14-.51.25l171.22 154.11c.89.8 2.03 1.21 3.18 1.21.74 0 1.47-.16 2.16-.51l104.22-52.81-104.22 36.94z" fill="#fff" opacity=".2"/><path d="M152.6 79.26c1.55-.63 3.35-.4 4.68.64l181.29 123.74L157.28 64.02c-1.33-1.03-3.13-1.27-4.68-.63l-94.3 38c-.18.07-.35.14-.51.26l94.81-22.38z" fill="#fff" opacity=".2"/><path d="M359.68 260.31L343.63 205.45c-.2.68 8.11 53.27 8.11 53.27 1.02 3.46-.44 7.19-3.54 9.05 0 0-109.42 71.71-108.65 71.24l116.59-69.65c3.09-1.86 4.55-5.59 3.54-9.05z" fill="#d89f00"/><path d="M118.59 118.93l37.49 52.1 5.14-2.97-10.76-14.67 16.38-9.46 18.9 9.98 5.14-2.97-67.23-34.93-5.07 2.92zm10.97 5.33l30.11 15.89-13.29 7.67-17.14-23.38.32-.18zm77.34 18.15c-1.9 1.1-4.13 1.62-6.69 1.57-2.56-.05-5.36-.74-8.39-2.07-3.03-1.33-6.22-3.39-9.56-6.17L175.2 135.5l4.67-2.7 24.54 20.4c2.87 2.38 5.77 3.92 8.72 4.62s5.39.49 7.33-.63c1.16-.67 1.96-1.67 2.4-3.01.44-1.33.28-2.9-.48-4.69-.76-1.79-2.37-3.71-4.82-5.75l-23.22-19.29 4.67-2.7 39.27 32.64-4.66 2.7-6.65-5.53-.32.18c1.28 2.07 1.87 4.12 1.75 6.14-.11 2.02-1.32 3.7-3.61 5.02zm22.42 57.51c.48 1.25.53 2.39.13 3.4-.39 1.01-1.2 1.82-2.42 2.44-1.36.69-2.89.97-4.59.85s-3.46-.64-5.28-1.54-3.58-2.18-5.29-3.82c-1.31-1.26-2.32-2.48-3.01-3.64-.69-1.17-1.08-2.25-1.18-3.25-.1-1.01.08-1.9.52-2.67.45-.78 1.15-1.41 2.11-1.9.82-.42 1.72-.68 2.69-.78.98-.1 1.98-.06 3.02.12 1.03.19 2.06.51 3.08.98s1.98 1.06 2.88 1.77l-3.12 1.59c-.48-.32-.96-.58-1.44-.77-.48-.2-.95-.33-1.42-.4-.46-.07-.92-.07-1.35-.01-.44.06-.86.19-1.26.39-.74.38-1.18.91-1.33 1.59-.15.68.01 1.48.49 2.39.47.91 1.27 1.91 2.4 3 1.13 1.08 2.24 1.93 3.34 2.53 1.1.61 2.14.96 3.11 1.08.98.11 1.85-.03 2.61-.41.69-.36 1.15-.79 1.36-1.31s.2-1.08-.05-1.7c-.23-.59-.68-1.2-1.31-1.83l-3.1 1.58-2.58-2.48 6.07-3.09 2.04 1.97c1.43 1.37 2.38 2.68 2.87 3.93zm1.3-13.3c-1.77-1.7-3.57-2.99-5.41-3.88-1.84-.89-3.6-1.38-5.27-1.49-1.68-.1-3.16.17-4.44.82-1.29.65-2.12 1.55-2.49 2.7-.38 1.15-.24 2.47.41 3.96.64 1.5 1.85 3.09 3.62 4.79 1.76 1.69 3.56 2.98 5.4 3.87s3.59 1.39 5.27 1.5c1.68.1 3.16-.17 4.45-.82 1.28-.65 2.11-1.55 2.48-2.7.38-1.14.24-2.47-.4-3.96-.65-1.5-1.85-3.09-3.62-4.79zm-.16 6.97c-.15.67-.59 1.2-1.33 1.57-.74.38-1.59.51-2.55.4-.96-.11-1.98-.46-3.07-1.06-1.09-.6-2.21-1.45-3.35-2.55-1.15-1.1-1.96-2.1-2.44-3.01-.49-.91-.65-1.7-.5-2.37.14-.67.59-1.2 1.33-1.57.74-.38 1.59-.51 2.55-.4.96.11 1.98.46 3.07 1.06 1.09.6 2.21 1.45 3.35 2.55 1.15 1.1 1.96 2.1 2.44 3.01.48.92.65 1.7.5 2.38zm16.99-7.76l2.82 2.71-9.28 4.72-16.22-15.58 3.07-1.56 13.39 12.86 6.22-3.16zm12.48-7.73c-.64-1.46-1.81-3-3.5-4.62-1.69-1.62-3.41-2.86-5.19-3.73-1.78-.87-3.52-1.35-5.22-1.44-1.7-.08-3.28.24-4.74.98l-5.18 2.64 16.21 15.58 5.14-2.62c1.48-.74 2.42-1.7 2.83-2.86.41-1.17.29-2.47-.35-3.93zm-3.79 2.35c-.26.66-.84 1.22-1.75 1.68l-1.95.99-10.34-9.93 1.96-1c.9-.46 1.85-.67 2.82-.64.98.03 2 .33 3.08.9 1.07.57 2.21 1.43 3.4 2.58 1.21 1.16 2.04 2.19 2.49 3.08.45.89.54 1.67.28 2.33z" fill="#c78100"/></svg>