<svg xmlns="http://www.w3.org/2000/svg" fill="none" viewBox="0 0 1001 217"><path fill="#79b22b" fill-rule="evenodd" d="m105.3.3-8.8.2h-8.8l-1.4.1-1.3.1-.4 8.8-.5 8.8-.1 2.3-.2 2.2h-6.6l-1.7.2-1.6.1.1-2.4.2-2.4.3-7.6.4-7.6V.9L63.5 1l-11.3.2-.3.2-.3.3v7.4l-.4 6.2-.3 6.2v1.7l-21.7.3-21.6.3-.3.2-.2.2-.2 4.9-.3 4.8v12.9H14l7.4-.2 1.1.6 1.1.6.6 1.7.6 1.7-.2 3.5v3.5l-.3 6.5-.3 6.5-.3 8-.3 8.1h-.3l-.2 6.8-.1 6.8-.3 5.8-.2 5.8-.3 7.2-.2 7.2-.5 12.4-.5 12.4v6.2l-.2 2-.3 1.8-.4 1.1-.4 1.1-.4.5-.4.4-.6.4-.7.3-7.6.2-7.5.2-.4.4-.3.5-.2 3.4-.1 3.5-.3 7.6-.3 7.6.3.3.3.4h5.1l.1-.2.1-.2 13.2-.2 13.1-.1 5.7-.2 5.6-.1v5l-.2 4.9-.4 8.4-.3 8.4.1.5.2.4 11.1-.2 11.2-.2.2-.2.2-.2.2-3.5.2-3.4.2-5.6.3-5.6v-8.6l.2-.2.2-.3 5-.1 4.9-.2-.2 5.4-.1 5.4-.4 8.3-.3 8.3.2.1.1.2 11.1-.2 11-.2h.2v-.2l.3-5.7.3-5.7.3-7.5.4-7.6v-5.2l.8-.1.8-.2 1-.5 1-.4 1.8-.9 1.8-.8.4-.3.5-.2.4-.3.4-.2 2-1.1 2-1.1.3-.4.3-.3h.6l.4-.5.5-.4 1.2-.9 1.3-.8.3-.4.3-.5h.5l.5-.4.6-.5 1.8-1.7 1.8-1.6 1-1 1-1 1.7-1.8 1.7-1.9.5-.6.6-.7v-.3l.5-.5.5-.6.8-1.2.9-1.1 1.3-2 1.4-2 .2-.6.2-.5.6-1 .5-.8.8-1.3.7-1.3.7-1.4.6-1.3.7-1.6.6-1.6.6-1.2.5-1.2.5-1.3.5-1.4.6-2 .6-1.9.7-2.3.6-2.3.3-1.3.3-1.4.2-.3.2-.2v-.2l-.1-.3.6-3.5.7-3.5.5-4.5.5-4.5V89.2l-.4-2.8-.4-2.8-.2-2-.2-2-.5-2-.5-2V75l-.2-.4-.4-1.5-.4-1.5-.6-2-.7-2.1-.4-1.3-.5-1.4-.2-.7-.2-.7-.6-1.4-.6-1.3-.4-.6-.4-.6v-.7l-1-1.6-.8-1.6-.2-.3-.2-.2v-.9h-.4l-.3-.7-.4-.8-.5-.6-.6-.6V51l-1.5-2.2-1.5-2-.7-1-.7-.7v-.3l-.5-.5-.5-.5-2.5-2.6-2.5-2.5-1.1-1-1-.9-1-.7-1-.8-1.2-1-1.3-.8-.7-.4-.8-.3-.3-.4-.3-.4h-.4l-.9-.6-.8-.6-2-1-2-1-1.6-.5-1.4-.6-1-.5-1-.4.2-5.6.2-5.7.3-7.3.3-7.3-.2-.4-.1-.4h-2m173 98.4v41.6l-.3.4-.3.3-.2 4-.1 4-.6 10.4-.6 10.4-.5 8.6-.5 8.6v3.7l-.1 3.6 2.5.2 2.6.2h17.7l17.7-.1.1-32 .2-32 .6-10.4.7-10.3.5-9.2.5-9.1 1-17 1.1-17v-.2l-.2-.2h-41.7zm55.4-41.4-.2.2v77l-1 15.7-1 15.7-.5 10.4-.6 10.5v3.8l-.2 3.7 2.6.2 2.6.2H353l17.7-.1.1-31.3.2-31.3.1-2.5.2-2.6.5-8.9.5-8.9 1-17.9 1.2-17.9.4-7.9.5-7.9-.1-.2-.1-.1h-41.4zm250 0-.2.2v76l-1 15.7-1 15.7-.5 10.7-.6 10.7-.2 4.2-.3 4 .1.3.1.2h42.2v-35.3l.1-35.2.2-3.8.1-3.7.7 1.3.7 1.3 1.2 2.3 1.2 2.3.2.2.3.3v.7l.3.4.4.4 1 2 1 1.9.2.3.2.4.8 1.7.8 1.7 1.4 2.5 1.4 2.6v.5l.6.9.5.8.7 1.4.7 1.3.9 1.5.8 1.4 1 1.7.8 1.7.6.9.5.8.2.3.3.3.1.5.2.6.3.4.3.4 1.4 2.4 1.3 2.4 1.1 2.1 1.2 2 .2.4.3.4.5 1 .4 1 .3.4.3.5.6.8.5.8v.6l.4.4.3.3 1.2 2.2 1.1 2.2.5 1 .4.8h.2l.2.2.4.8.5.9.3.5.2.5.3.3.2.4.3.8.4.8 1 1.5.8 1.5 1 1.7.9 1.7.3.4.4.4v.7l.4.6.4.6.5.7.4.8.3.6.3.6h.1l.2.2.4.8.4.8h21.7l21.6-.1.2-34.7.2-34.7.1-4 .2-3.8.2-.5.2-.5.4-7 .4-7.1.4-9 .5-9 .6-10.4.7-10.3v-6.8h-42.9v24l-.1 24 .2 14.3.3 14.4v1l-.2 1.2-.5-1.1-.5-1.1-.8-1.3-.7-1.2-.1-.3-.2-.4-1-2.3-1.2-2.3-.7-1.4-.7-1.3-2.1-4.2-2-4.3-.4-.3-.4-.3-.2-.9-.3-.8h-.5v-.5l-1.3-2.5-1.4-2.5-.9-1.5-.8-1.4-1-2-1.1-2-.6-1-.5-.9-.2-.1-.1-.1-.4-.8-.4-.7-.3-.6-.3-.6-.2-.4-.2-.3-.9-1.7-.9-1.7-.3-.4-.3-.4-1.2-2.2-1.1-2.2h-.2l-.2-.2-.1-.6-.2-.7-.4-.4-.3-.3v-.5l-.7-.7-.6-.6v-.9l-.3-.3-.3-.4-.5-1-.5-.9-1-1.7-.8-1.7-.4-.4-.3-.3-1.5-3-1.5-2.9-.2-.1-.1-.1-.4-.9-.5-.8-.5-1-.6-1-1-1.8-1-1.8-.9-1.6-.8-1.6-.3-.4-.2-.3h-21.8l-21.8-.2zM87 62.5l2.3.6 1 .4 1 .5h.6l2.3 1 2.3 1.2 1.4 1.2 1.4 1.1.9.9.8.8.7.9.8.8.3.6.3.6.6 1 .6 1 .6 1 .6 1.1.7 2 .7 2 .7 2.6.6 2.7.4 3.2.5 3.1v16.3l-.5 4-.4 3.8-.6 2.8-.6 2.8v.6l-.2.6-.6 2.2-.7 2.1-.4 1-.4.8-1 2.3-1.1 2.2v.3l-.7 1-.6 1-1.2 1.6-1.2 1.6-1.4 1.4-1.4 1.3-1.1.8-1.2.8v.5h-.7l-.5.4-.6.4-1.5.7-1.4.6-1.7.6-1.7.7h-1l-.8.3-.7.4-3 .4-2.9.3-8.1.2-8.2.1.2-1.9.1-1.9.2-5.4.1-5.3.6-15.5.6-15.4.5-12.7.5-12.7V75l.3-6.6.3-6.6h10.1l10.2.1zm117.9 31.3-4 .3-1 .2-1.1.1-.2.3v.2h-1.7l-2 .5-1.9.5-1.4.4-1.5.3-.2.2-.2.3h-1l-1.3.6-1.3.6-.6.1-.6.2-.2.2-.1.2-1 .5-1 .5-1.6 1-1.6.8-.9.6-.8.5-.8.6-.7.5-.4.4-.5.5h-.3l-.5.4-.5.5-2.7 2.6-2.6 2.7-.8 1-.8 1-1.6 2.4-1.7 2.4-1.3 2.7-1.3 2.8v.5l-.5 1-.5 1.2-.2.7-.1.8-.3.5-.3.5-.3 1.3-.2 1.4-.5 2.3-.5 2.3v2l-.4 2.7-.4 2.6v11l.5 3.5.5 3.5.5 1.6.5 1.7v.6l.6 1.2.6 1.3v.7l.2.3.2.2.6 1.4.6 1.5 1 1.7.9 1.7 1 1.5 1 1.4 1 1.4 1.1 1.3 2.6 2.5 2.6 2.6.8.5.8.5 1.3 1 1.4.8h.4l.1.2.1.2 1.3.8 1.3.8h.3l1.2.6 1.3.5 1.2.6 1.2.5 3.4 1 3.5 1.2 1.6.2 1.6.2 2.3.4 2.3.5h19.3l2.9-.6 3-.5.8-.2.8-.3 1.2-.3 1.3-.4 1.8-.6 1.8-.7 1.2-.5 1.3-.5 1.6-.7 1.5-.7 1.5-1 1.5-.8v-.1l.2-.1.5-.3.5-.4.4-.1.3-.2.1-.1.2-.2 1.4-1 1.4-1.1 1-1 1-.9h.2l1-1 1-1 .8-.9.8-.8 1.2-1.7 1.3-1.6v-.5l.3-.2.3-.2.7-1.2.8-1.2.5-1 .5-1 .6-1.2.6-1.3.2-.6.2-.5.3-.4.2-.4.7-2 .7-2 .6-2.4.5-2.3.6-4.1.5-4.1-.1-5.6-.1-5.7-.5-4.2-.5-4.3-.5-1.8-.6-1.9-.4-1.7-.5-1.7-.6-1.2-.6-1.2-.9-1.8-.8-1.9-.3-.3-.2-.4-.1-.4-.2-.3-.8-1.1-.9-1.1-.1-.4-.2-.3-1.9-2.3-1.9-2.2-1.2-1-1.2-1.1-1.5-1.4-1.6-1.3-.2-.1-.3-.1-1.1-.8-1.1-.7-.1-.1-.2-.2-1.7-.8-1.7-.8-.2-.3-.3-.3-1.2-.4-1.2-.5-.5-.3-.5-.3h-.8l-.7-.4-.7-.4-1.1-.2-1-.2-1.8-.5-1.7-.5h-1.5l-.2-.2-.1-.3-1.7-.2-1.6-.3-3.2-.2-3.2-.3h-3.6l-3.7.1zm223.7 0-1.7.1-2 .3-2 .3-.1.2-.2.2h-1.8l-2.5.6-2.6.7-2.5.8-2.4.8-1 .4-1 .4-.2.2-.3.2-1.7 1-1.7.8-1.7 1.1-1.7 1.1-.3.5-.3.4h-.4l-2 2-1.9 1.8-.8 1-.8 1-.5.9-.5.7-.5 1-.5 1-.3.5-.3.4-1 2.2-1 2.1-.2 1-.2 1-.5 2-.5 2-.1 1.7-.2 1.8h1.1l13 .4 13.1.3 3.6.2 3.6.1.2-.4.1-.5.3-.7.4-.7.3-1 .4-.9.3-.3.4-.3.7-1 .7-.8h.4l.7-.5.6-.4 1.6-.6 1.6-.6 2.4-.2 2.5-.1 2 .2 2.1.2.2.3.3.2h.6l1 .7 1 .6.7 1 .8 1 .3 1.7.3 1.7-.2.3-.2.2v.9l-.8 1.1-.8 1-1 .6-1 .6-2.4.6-2.4.7-3.3.5-3.3.5-2.5.1-2.4.2-.6.2-.6.2-3.7.2-3.6.3-3 .5-2.9.5-1.7.5-1.7.5-.9.2-.8.2-1.4.5-1.4.5-1 .4-.9.5-1.7.8-1.7.8-.1.2-.1.1-1.5 1-1.6.8-1 1-1 .9-2 1.8-1.8 2v.7h-.4l-1.2 1.7-1 1.8-.4.7-.3.7-.4 1-.4 1-.7 2.6-.6 2.5-.3 3.8-.3 3.9.3 3.2.3 3.2.5 1.4.5 1.4v.7l.6 1.2.6 1.2v.3l.9 1.3.9 1.4h.4v.6l1.3 1.4 1.2 1.3 1.4 1.1 1.3 1.1 1 .6.9.5h.7l.2.3.2.3 1.2.5 1.2.4.2.2.3.2 2.2.7 2.2.8 3 .5 3.1.5h7.6l7.5-.2 2.6-.5 2.5-.5 1.1-.4 1.1-.4 1.4-.6 1.3-.6.6-.3.5-.3 1.6-1 1.6-1 2.5-2.4 2.6-2.5-.1 1-.1 1-.3 3.4-.2 3.4.2.2.2.2h19.6l19.7-.1.1-31.4.2-31.4.2-4.2.1-4.1-.2-1.8-.3-1.9-.6-2.3-.7-2.3-.7-1.6-.8-1.5-.5-1-.5-1.1-.4-.5-.4-.5v-.4l-.5-.3-.4-.4-.6-.8-.6-.8-2.4-2.2-2.4-2-.9-.5-1-.5v-.1l-.2-.2-1.6-.8-1.6-.9-.6-.4-.5-.4h-.8l-1.2-.6-1.2-.6h-.6l-1.6-.5-1.5-.5-2.7-.6-2.7-.6h-2l-.2-.2-.2-.3-2-.2-2.2-.3h-8l-8-.2zm340.8 0-1.4.1-2 .3-2 .3-.2.2-.1.2H762l-1.8.5-1.9.5-.8.2-.9.2-1 .4-.9.4h-.9l-1.2.6-1.1.5-2.6 1.3-2.5 1.3-1.1.6-1.2.7-.7.4-.7.5-.6.5-.6.5-.7.5-.7.5-2.7 2.5-2.6 2.6-1.7 2-1.6 2.1-.8 1.2-.8 1.1-.1.5-.2.5-.3.3-.3.3-1.2 2.5-1.3 2.5-.6 1.8-.6 1.8-.5 1.6-.6 1.7-.2 1.4-.2 1.3-.5 1.9-.5 1.8-.5 2.6-.4 2.5-.2 5-.1 5 .2 3.7.3 3.6.7 3 .8 3 .2.5.2.4v.8l.7 1.6.6 1.7.9 2 .9 2 .6 1 .7 1v.2l.6.8.7.8v.3l1.5 1.9 1.5 1.9 2 2 2 2 1.3 1 1.3 1 .5.3.5.4 1.7 1.1 1.7 1.1 2.3 1.1 2.3 1 .9.4.8.3 1.8.7 1.7.7 1 .2 1 .2 1.2.4 1.2.3 1.8.3 1.9.2 1.6.3 1.6.2 3.7.3 3.8.2 3.6-.2 3.6-.3 2.8-.4 2.9-.4 2.3-.4 2.3-.5h1.5l2.8-1 2.8-1 .7-.2.8-.2 1.6-.6 1.6-.7 1.2-.6 1.2-.6 1-.6 1-.6 1.1-.6 1.2-.7v-.4h.6l.5-.5.4-.5h.6l.8-.7.8-.7 2-2 2.1-1.8 1.5-1.8 1.5-1.9.4-.3.4-.4 1.3-2 1.2-2v-.2l1-1.6.9-1.5.7-2 .8-1.9.6-1.8.6-1.8.5-2 .5-2 .4-1.6.3-1.7.3-2.4.3-2.3-.1-6.3-.1-6.3-.4-2-.4-2-.5-2-.5-2-.2-1-.2-.8-.7-2-.6-1.9-.9-2-.9-2.1-.2-.2-.2-.3-.8-1.5-.8-1.6-.2-.4-.3-.4-1.3-1.9-1.3-1.9h-.4l-.2-.3-.1-.4-1.2-1.2-1-1.3-.8-.7-.7-.6-.4-.4-.4-.3-1.3-1.1-1.4-1.1-1.6-1.1-1.5-1-.9-.5-.9-.4-2-1.2-2.1-1-2-.8-2-.8-1.6-.6-1.7-.5-2.3-.6-2.2-.6h-1.8v-.4l-1.7-.3-1.8-.3h-7l-7-.2zm-210.8 1.7h-.3l-2.6.4-2.6.3-2 .6-2.1.7-1.2.7-1.2.6-.8.5-.7.6-1.6 1.6-1.6 1.6-.3.4-.2.3-.4.7-.4.6-.5.7-.4.7-.4 1-.4.9v-1l.3-5.4.4-5.5-.1-.3-.1-.3h-38.2l-.2 20-.1 19.8-.6 8.4-.5 8.4-.6 11-.6 10.9-.6 9.8-.6 9.8v.3l.2.4 8.9.1 8.8.2h11.5l11.4-.2.2-26.1.1-26.2.4-1.6.4-1.6.3-.8.2-.9.6-1.3.5-1.4.2-.2.2-.2 1.3-1.6 1.2-1.6.8-.7.7-.7 1.6-1 1.7-.9h.3l1-.5 1-.5 2-.4 2-.4h5.6l5.6-.2.5.3.4.2 1.8.1 1.8.1.4-.5.3-.5.1-4.4.2-4.4.5-7.2.4-7.1v-3.1l.1-3.1-.2-.3-.2-.2-4.5-.3-4.6-.2H559zm420.4.3h-19.6l-.3.5-.4.4v1.2l-.6 3-.6 2.9-.5 2.7-.5 2.6-.6 2.7-.6 2.7v.6l-.1.6-.2.3-.1.2-.4 2.2-.4 2.2-.5 2-.5 2v1.3l-.5 1.9-.4 1.8v1.6l-.5 1.4-.5 1.4-.3 1.2-.2 1.2-.1.2v.3l-.4.7-.2.7v1.2l-.6 2-.6 2.2-.4 1.7-.5 1.7-.2 1.3-.1 1.3-.5 1.2-.4 1.3-.1 1.2-.2 1.2-.5-2.3-.6-2.4-.5-2.4-.5-2.3-.6-2.5-.5-2.4-.2-.9-.1-.8-.8-2.7-.7-2.7-.3-1.3-.2-1.3-.5-1.7-.5-1.6v-1.1l-.6-2.2-.6-2.2v-1.5l-.6-3.2-.6-3.3-.4-1.3-.3-1.2-.2-1.2-.1-1.2-.5-2.4-.4-2.5-.7-3.6-.6-3.7-.2-.3-.2-.4H917l-17-.1-.2.2-.3.3-.3 1.5-.3 1.5-.5 1.7-.4 1.8v1.1l-.6 2-.6 2-.3 1.5-.3 1.5-.2.4-.2.4-.4 1.7-.4 1.7-.3 1.2-.2 1.3-.5 1.6-.4 1.6v1.1l-.5 1.6-.5 1.6-.3 1.3-.2 1.4-.5 1.7-.4 1.7-.6 1.8-.5 1.8-.6 1.9-.5 1.8-.6 2-.5 2.1-1 3.4-1.1 3.4-.6 2-.5 2h-.2l-.4-2.5-.5-2.4-.4-2.2-.4-2.1-.3-.1-.2-.2v-1.3l-.4-2.3-.5-2.3-.7-3.3-.6-3.3-.6-2.6-.5-2.7-1-5.9-1-5.8-.4-2.4-.4-2.5-.3-1.8-.2-1.8-.6-3.3-.6-3.3-.1-1.5-.1-1.4-.4-.3-.4-.3h-40.2l-.1.2-.2.2.4 1.3.4 1.3.5 1.6.4 1.6.7 2.2.6 2.2 1.1 3.4 1 3.4.7 2 .5 1.9.5 1.7.5 1.7 1.1 3.5 1.1 3.5v1l.6 2.2.6 2.2.5 2.3.6 2.3.2 1.1.3 1.1.8 3 .8 2.9.6 2.9.7 2.9.5 1.8.4 1.8 1.1 4.6 1.2 4.5.5 2.3.6 2.3.5 2.4.6 2.5.6 2 .5 2.2.1.4.1.5.4 1.3.4 1.3.6 2.8.7 2.8.6 2.5.5 2.4.3 1.4.3 1.4.3.3.3.2H901l.1-.2.2-.2.6-2 .5-1.9.5-1.7.5-1.7.5-2 .6-1.9.8-2.5.8-2.6.3-1.3.4-1.4.2-.7.3-.7.3-1.4.3-1.3.5-1.6.5-1.6 1.1-3.5 1-3.5.6-2 .5-2 .6-1.9.6-2v-1.2l.5-1.4.5-1.5.5-2 .6-2 .1-.3.2-.2.4 2 .4 1.8.1 1.1.2 1.1.5 2.6.5 2.5.3 1.8.4 1.8h.2l.3.2-.2.2v.2l.4 1.8.5 1.8.2 1.5.3 1.5.2.7.3.7.5 2.2.4 2.3.5 2.3.5 2.2.6 2.2.6 2.2.3 1.2.3 1.2.5 2.5.6 2.4.7 3 .6 2.8.1.3v.3h41.9l.4-.4.5-.5v-1.1l.6-1.8.7-1.8v-.7l.4-1.5.5-1.5.5-1.6.5-1.6.2-1 .2-.8.3-.3.2-.3.2-.8.1-.7.7-2 .6-2.1.5-1.7.5-1.7.5-1.9.6-1.8.2-.7.1-.8.3-.7.4-.7.6-2.2.7-2.2.4-1.6.5-1.6.6-2 .6-2.1.1-.6.1-.6 1-2.8 1-2.8.6-2.3.7-2.3.5-1.7.5-1.8 1-3.1 1.1-3.2v-.6l.4-.8.3-.8 1.1-3.1 1.1-3.2 1.3-3.3 1.2-3.3.3-.8.2-1 .3-.6.4-.7v-.8l.4-1 .4-1 .3-.7.4-.7.9-2.4.8-2.5.2-.8.3-.9.3-.7.4-.7v-.8l.6-1.3.6-1.3v-2.3h-1.4l-.3-.1zm-764.4 27.6 1 .2 1.5.8 1.5.8 1.2 1.2 1.2 1.2 1 1.5 1 1.4.5 1 .4.9.7 1.9.6 1.9.2 2 .3 1.9-.2 4.5-.1 4.5-.7 2.9-.8 2.8-1.2 2.5-1.2 2.5-.4.6-.5.6-.6 1-.7 1-1 .7-1 .7-.5.4-.4.4-2 .9-1.8.8-1.4.3-1.3.3-1.3-.1-1.4-.2-1.8-.9-1.9-.9-1.3-1-1.3-1.2-.6-.6-.5-.6v-.6l-.4-.3-.3-.2-.8-1.6-.7-1.5-.5-1.2-.5-1.3-.5-2.1-.6-2.2v-12.2l1-3 1-3 1-1.6.8-1.6.5-.7.6-.8 1.4-1.4 1.4-1.3 1.4-1 1.5-.8h.8l.5-.2.4-.3 1.6-.2 1.5-.1 1.3.1 1.4.2zm566 .7 1.3.5.8.4.9.4 1.8 1.8 1.8 1.9 1 2.3 1.2 2.3.2 1.3.2 1.2.3 1 .3 1.1v9.5l-.4 2.5-.5 2.4-.2.9-.2.8-.5 1.5-.5 1.4-.4.9-.4.8-.2.4-.2.4-1 1.4-.8 1.5-1.3 1.2-1.2 1.2-1.5 1-1.4.9-1.2.3-1.2.4h-2.5l-1.5-.4-1.4-.4-1.7-.8-1.7-.9-1-.9-1-.9-1.2-1.3-1-1.4-.7-1.2-.6-1.2-.6-1.7-.6-1.7-.6-3-.5-2.8.1-5 .1-4.8.6-2.3.5-2.3 1-2.3 1.2-2.2 2.1-2.2 2.2-2.1.7-.5.7-.4 1.8-.7 1.9-.6h5.7zm-335.4 29v.8l-.2 2.7-.2 2.7-.2 1.8-.3 1.8-.6 1.2-.5 1.1-.8 1.2-.7 1.1-1.5 1.1-1.6 1.2-.6.3-.6.3-1.4.8-1.5.7-1.8.3-1.9.3h-2l-1.7-.3-1.7-.3-1.1-.7-1.2-.7-1-.8-.8-1-.5-1-.5-1.1v-3.9l.7-1.2.6-1.2.8-.8.9-.8 1.3-.8 1.4-.9 2.4-.7 2.4-.8h1.2l3.2-.6 3.2-.6 2.4-.7 2.5-.6.7-.3.7-.3h.7z" clip-rule="evenodd"/></svg>