<svg width="64" height="64" viewBox="0 0 64 64" fill="none" xmlns="http://www.w3.org/2000/svg">
<path d="M32 64c17.673 0 32-14.327 32-32 0-17.673-14.327-32-32-32C14.327 0 0 14.327 0 32c0 17.673 14.327 32 32 32z" fill="#fff"/>
<path d="M0 32C0 43.842 6.438 54.175 16 59.708V4.292C6.438 9.825 0 20.158 0 32z" fill="#F0263C"/>
<path d="M48 4.292v55.416C57.562 54.175 64 43.842 64 32 64 20.158 57.562 9.825 48 4.292z" fill="#F0263C"/>
<path d="m46.667 32-2.667-1.333L45.333 26.667 41.333 28 40 25.333 36 29.333l1.333-8-2.63-.653L32 17.333l-2.703 5.306-2.631.654L28 29.333 24 25.333 22.667 28l-4-1.333L20 30.667 17.333 32l8 6.667-1.333 2.666 6.667-1.333V46.667h2.666V40l6.667 1.333-1.334-2.666L46.667 32z" fill="#F0263C"/>
</svg>
