<svg width="64" height="64" viewBox="0 0 64 64" fill="none" xmlns="http://www.w3.org/2000/svg">
<path d="M32 64c17.673 0 32-14.327 32-32 0-17.673-14.327-32-32-32C14.327 0 0 14.327 0 32c0 17.673 14.327 32 32 32z" fill="#F0263C"/>
<path d="m13.333 14.667-5.333 5.333L13.333 25.333 18.667 20 13.333 14.667z" fill="#FFD400"/>
<path d="m22.667 8-2.668 2.667L22.667 13.333 25.333 10.667 22.667 8z" fill="#FFD400"/>
<path d="m22.667 26.667-2.668 2.667L22.667 32l2.666-2.667-2.666-2.666z" fill="#FFD400"/>
<path d="m28 21.333-2.667 2.667L28 26.667l2.667-2.667L28 21.333z" fill="#FFD400"/>
<path d="m28 13.333-2.667 2.667L28 18.667l2.667-2.667L28 13.333z" fill="#FFD400"/>
</svg>
