<svg width="64" height="64" viewBox="0 0 64 64" fill="none" xmlns="http://www.w3.org/2000/svg">
<path d="M32 64c17.673 0 32-14.327 32-32 0-17.673-14.327-32-32-32C14.327 0 0 14.327 0 32c0 17.673 14.327 32 32 32z" fill="#191977"/>
<path d="m35.333 7.333-3.333-3.333-3.334 3.333L32 10.667l3.333-3.334z" fill="#FFD400"/>
<path d="m22.553 8.971-4.553-1.22L16.78 12.305l4.553 1.22 1.22-4.554z" fill="#FFD400"/>
<path d="m12.305 16.78-4.554 1.22 1.22 4.553 4.554-1.22-1.22-4.553z" fill="#FFD400"/>
<path d="m7.333 28.667-3.333 3.333 3.333 3.333L10.667 32l-3.334-3.333z" fill="#FFD400"/>
<path d="m8.971 41.447-1.22 4.553 4.553 1.22 1.22-4.553-4.553-1.22z" fill="#FFD400"/>
<path d="m16.78 51.695 1.22 4.554 4.553-1.22-1.22-4.553-4.553 1.22z" fill="#FFD400"/>
<path d="m28.667 56.667 3.333 3.333 3.333-3.333L32 53.333l-3.333 3.334z" fill="#FFD400"/>
<path d="m41.447 55.029 4.553 1.22 1.22-4.554-4.553-1.22-1.22 4.554z" fill="#FFD400"/>
<path d="m51.695 47.22 4.554-1.22-1.22-4.553-4.553 1.22 1.22 4.553z" fill="#FFD400"/>
<path d="m56.667 35.333 3.333-3.334-3.333-3.333-3.334 3.333 3.334 3.334z" fill="#FFD400"/>
<path d="m55.029 22.553 1.22-4.553-4.554-1.22-1.22 4.553 4.554 1.22z" fill="#FFD400"/>
<path d="m47.22 12.305-1.22-4.554-4.553 1.22 1.22 4.553 4.553-1.22z" fill="#FFD400"/>
</svg>
