<svg width="64" height="64" viewBox="0 0 64 64" fill="none" xmlns="http://www.w3.org/2000/svg">
<path d="M32 64c17.673 0 32-14.327 32-32 0-17.673-14.327-32-32-32C14.327 0 0 14.327 0 32c0 17.673 14.327 32 32 32z" fill="#fff"/>
<path d="M64 32C64 14.327 49.673 0 32 0c-5.831 0-11.292 1.567-16 4.292v55.416C20.708 62.433 26.169 64 32 64c17.673 0 32-14.327 32-32z" fill="#1E5B00"/>
<path d="M29.333 26.667c0-3.051.855-5.902 2.338-8.329C27.07 21.148 24 26.215 24 32c0 8.837 7.163 16 16 16 5.785 0 10.852-3.071 13.663-7.671-2.426 1.482-5.278 2.338-8.33 2.338-8.837 0-16-7.164-16-16z" fill="#fff"/>
<path d="m48 18.667-4 4 4 4 4-4-4-4z" fill="#fff"/>
</svg>
